<svg width="16" height="18" viewBox="0 0 16 18" fill="none" xmlns="http://www.w3.org/2000/svg">
<path d="M11.775 5.60563V3.94366C11.775 3.42577 11.6761 2.91295 11.4839 2.43449C11.2917 1.95602 11.0099 1.52127 10.6547 1.15507C10.2995 0.788869 9.87788 0.498381 9.41381 0.300193C8.94974 0.102006 8.45235 0 7.95005 0C7.44774 0 6.95035 0.102006 6.48628 0.300193C6.02221 0.498381 5.60055 0.788869 5.24537 1.15507C4.89018 1.52127 4.60843 1.95602 4.41621 2.43449C4.22399 2.91295 4.12505 3.42577 4.12505 3.94366V7.88732C4.12505 8.03674 4.18262 8.18004 4.28509 8.28569C4.38757 8.39135 4.52656 8.4507 4.67148 8.4507C4.8164 8.4507 4.95539 8.39135 5.05786 8.28569C5.16034 8.18004 5.21791 8.03674 5.21791 7.88732V6.73239H9.58933V5.60563H5.21791V3.94366C5.21791 3.19657 5.50576 2.48008 6.01813 1.95181C6.53051 1.42354 7.22544 1.12676 7.95005 1.12676C8.67466 1.12676 9.36959 1.42354 9.88197 1.95181C10.3943 2.48008 10.6822 3.19657 10.6822 3.94366V7.85915C10.6822 8.00857 10.7398 8.15187 10.8422 8.25752C10.9447 8.36318 11.0837 8.42253 11.2286 8.42253C11.3735 8.42253 11.5125 8.36318 11.615 8.25752C11.7175 8.15187 11.775 8.00857 11.775 7.85915V6.73239H14.5072V16.8732H1.39291V6.73239H3.03219V5.60563H0.300049V16.9239C0.300049 17.2093 0.410007 17.483 0.605735 17.6848C0.801463 17.8866 1.06693 18 1.34373 18H14.5564C14.8332 18 15.0986 17.8866 15.2944 17.6848C15.4901 17.483 15.6 17.2093 15.6 16.9239V5.60563H11.775Z" fill="white"/>
</svg>
