<svg width="16" height="18" viewBox="0 0 16 18" fill="none" xmlns="http://www.w3.org/2000/svg">
<path fill-rule="evenodd" clip-rule="evenodd" d="M14.7802 6.03918C13.8627 4.88291 12.5753 4.21399 11.36 4.21399C9.75227 4.21399 9.07299 4.98641 7.95762 4.98641C6.80798 4.98641 5.93379 4.21511 4.54318 4.21511C3.17728 4.21511 1.72505 5.05413 0.804355 6.48805C-0.491242 8.50449 -0.27186 12.2984 1.82895 15.5314C2.58032 16.6875 3.58378 17.9875 4.89584 17.9999C6.06195 18.0107 6.39191 17.2477 7.97408 17.2387C9.55647 17.2299 9.85573 18.0082 11.0216 17.9972C12.3337 17.9846 13.3923 16.545 14.1432 15.3888C14.6815 14.5605 14.8819 14.1421 15.3 13.2058C12.2627 12.0453 11.7743 7.70529 14.7802 6.03918Z" fill="white"/>
<path fill-rule="evenodd" clip-rule="evenodd" d="M10.1406 2.92228C10.7247 2.16449 11.1683 1.09394 11.0072 0C10.0532 0.0665996 8.93714 0.680171 8.28567 1.48049C7.69427 2.20679 7.20589 3.28385 7.3959 4.33077C8.43741 4.3634 9.51518 3.73408 10.1406 2.92228Z" fill="white"/>
</svg>
